<svg xmlns="http://www.w3.org/2000/svg" width="1900" height="1040" viewBox="0 0 1900 1040">
<rect width="100%" height="100%" fill="white"/>
<text x="55" y="28" font-size="38" font-family="Microsoft YaHei,Noto Sans CJK SC,sans-serif" text-anchor="start" dominant-baseline="text-before-edge" fill="#202831">全库检验中的策略退步：同一张地图仍有合法四色标记</text>
<text x="55" y="96" font-size="25" font-family="Microsoft YaHei,Noto Sans CJK SC,sans-serif" text-anchor="start" dominant-baseline="text-before-edge" fill="#505B67">guillotine-20261220，第 14 刀｜原坐标、原线段、完整拓扑；未简化或删线。</text>
<text x="55" y="169" font-size="28" font-family="Microsoft YaHei,Noto Sans CJK SC,sans-serif" text-anchor="start" dominant-baseline="text-before-edge" fill="#202831">上一版合法结果：全边检查通过</text>
<text x="55" y="220" font-size="25" font-family="Microsoft YaHei,Noto Sans CJK SC,sans-serif" text-anchor="start" dominant-baseline="text-before-edge" fill="#505B67">外侧1；内部数字表示当前线侧名</text>
<rect x="55" y="280" width="164.7" height="76.5" fill="#CDE7F4"/>
<rect x="219.7" y="280" width="324.9" height="228.6" fill="#FFE4AF"/>
<rect x="544.6" y="280" width="320.4" height="540" fill="#CDE7F4"/>
<rect x="481.6" y="657.1" width="63" height="162.9" fill="#FFE4AF"/>
<rect x="347.5" y="657.1" width="134.1" height="162.9" fill="#CDE7F4"/>
<rect x="55" y="657.1" width="292.5" height="162.9" fill="#FFE4AF"/>
<rect x="55" y="563.5" width="249.3" height="93.6" fill="#CDE7F4"/>
<rect x="55" y="526.6" width="489.6" height="36.9" fill="#FFE4AF"/>
<rect x="55" y="508.6" width="489.6" height="18" fill="#DDCFE8"/>
<rect x="55" y="356.5" width="112.5" height="152.1" fill="#FFE4AF"/>
<rect x="167.5" y="356.5" width="52.2" height="152.1" fill="#EEEEEE"/>
<rect x="304.3" y="563.5" width="95.4" height="43.2" fill="#DDCFE8"/>
<rect x="399.7" y="563.5" width="144.9" height="43.2" fill="#EEEEEE"/>
<rect x="304.3" y="623.8" width="240.3" height="33.3" fill="#EEEEEE"/>
<rect x="304.3" y="606.7" width="240.3" height="17.1" fill="#FFE4AF"/>
<polyline points="55,280 865,280 865,820 55,820 55,280" fill="none" stroke="#202831" stroke-width="5"/>
<polyline points="55,356.5 219.7,356.5" fill="none" stroke="#202831" stroke-width="4"/>
<polyline points="55,508.6 544.6,508.6" fill="none" stroke="#202831" stroke-width="4"/>
<polyline points="55,526.6 544.6,526.6" fill="none" stroke="#202831" stroke-width="4"/>
<polyline points="55,563.5 544.6,563.5" fill="none" stroke="#202831" stroke-width="4"/>
<polyline points="55,657.1 544.6,657.1" fill="none" stroke="#202831" stroke-width="4"/>
<polyline points="167.5,356.5 167.5,508.6" fill="none" stroke="#202831" stroke-width="4"/>
<polyline points="219.7,280 219.7,508.6" fill="none" stroke="#202831" stroke-width="4"/>
<polyline points="304.3,563.5 304.3,657.1" fill="none" stroke="#202831" stroke-width="4"/>
<polyline points="304.3,606.7 544.6,606.7" fill="none" stroke="#202831" stroke-width="4"/>
<polyline points="304.3,623.8 544.6,623.8" fill="none" stroke="#202831" stroke-width="4"/>
<polyline points="347.5,657.1 347.5,820" fill="none" stroke="#202831" stroke-width="4"/>
<polyline points="399.7,563.5 399.7,606.7" fill="none" stroke="#202831" stroke-width="4"/>
<polyline points="481.6,657.1 481.6,820" fill="none" stroke="#202831" stroke-width="4"/>
<polyline points="544.6,280 544.6,820" fill="none" stroke="#202831" stroke-width="4"/>
<text x="137.35" y="303.25" font-size="30" font-family="Microsoft YaHei,Noto Sans CJK SC,sans-serif" text-anchor="middle" dominant-baseline="text-before-edge" fill="#202831">2</text>
<text x="382.15" y="379.3" font-size="30" font-family="Microsoft YaHei,Noto Sans CJK SC,sans-serif" text-anchor="middle" dominant-baseline="text-before-edge" fill="#202831">3</text>
<text x="704.8" y="535" font-size="30" font-family="Microsoft YaHei,Noto Sans CJK SC,sans-serif" text-anchor="middle" dominant-baseline="text-before-edge" fill="#202831">2</text>
<text x="513.1" y="723.55" font-size="30" font-family="Microsoft YaHei,Noto Sans CJK SC,sans-serif" text-anchor="middle" dominant-baseline="text-before-edge" fill="#202831">3</text>
<text x="414.55" y="723.55" font-size="30" font-family="Microsoft YaHei,Noto Sans CJK SC,sans-serif" text-anchor="middle" dominant-baseline="text-before-edge" fill="#202831">2</text>
<text x="201.25" y="723.55" font-size="30" font-family="Microsoft YaHei,Noto Sans CJK SC,sans-serif" text-anchor="middle" dominant-baseline="text-before-edge" fill="#202831">3</text>
<text x="179.65" y="595.3" font-size="30" font-family="Microsoft YaHei,Noto Sans CJK SC,sans-serif" text-anchor="middle" dominant-baseline="text-before-edge" fill="#202831">2</text>
<text x="299.8" y="533.55" font-size="23" font-family="Microsoft YaHei,Noto Sans CJK SC,sans-serif" text-anchor="middle" dominant-baseline="text-before-edge" fill="#202831">3</text>
<text x="299.8" y="512.1" font-size="11" font-family="Microsoft YaHei,Noto Sans CJK SC,sans-serif" text-anchor="middle" dominant-baseline="text-before-edge" fill="#202831">4</text>
<text x="111.25" y="417.55" font-size="30" font-family="Microsoft YaHei,Noto Sans CJK SC,sans-serif" text-anchor="middle" dominant-baseline="text-before-edge" fill="#202831">3</text>
<text x="193.6" y="417.55" font-size="30" font-family="Microsoft YaHei,Noto Sans CJK SC,sans-serif" text-anchor="middle" dominant-baseline="text-before-edge" fill="#202831">1</text>
<text x="352" y="571.1" font-size="28" font-family="Microsoft YaHei,Noto Sans CJK SC,sans-serif" text-anchor="middle" dominant-baseline="text-before-edge" fill="#202831">4</text>
<text x="472.15" y="571.1" font-size="28" font-family="Microsoft YaHei,Noto Sans CJK SC,sans-serif" text-anchor="middle" dominant-baseline="text-before-edge" fill="#202831">1</text>
<text x="424.45" y="629.95" font-size="21" font-family="Microsoft YaHei,Noto Sans CJK SC,sans-serif" text-anchor="middle" dominant-baseline="text-before-edge" fill="#202831">1</text>
<text x="424.45" y="609.75" font-size="11" font-family="Microsoft YaHei,Noto Sans CJK SC,sans-serif" text-anchor="middle" dominant-baseline="text-before-edge" fill="#202831">3</text>
<polyline points="304.3,606.7 544.6,606.7 544.6,623.8 304.3,623.8 304.3,606.7" fill="none" stroke="#00618A" stroke-width="6"/>
<text x="1000" y="169" font-size="28" font-family="Microsoft YaHei,Noto Sans CJK SC,sans-serif" text-anchor="start" dominant-baseline="text-before-edge" fill="#202831">新规则仍受阻：留白供人工标记</text>
<text x="1000" y="220" font-size="25" font-family="Microsoft YaHei,Noto Sans CJK SC,sans-serif" text-anchor="start" dominant-baseline="text-before-edge" fill="#505B67">蓝框为最后主动定名侧；? 表示待命名</text>
<polyline points="1000,280 1810,280 1810,820 1000,820 1000,280" fill="none" stroke="#202831" stroke-width="5"/>
<polyline points="1000,356.5 1164.7,356.5" fill="none" stroke="#202831" stroke-width="4"/>
<polyline points="1000,508.6 1489.6,508.6" fill="none" stroke="#202831" stroke-width="4"/>
<polyline points="1000,526.6 1489.6,526.6" fill="none" stroke="#202831" stroke-width="4"/>
<polyline points="1000,563.5 1489.6,563.5" fill="none" stroke="#202831" stroke-width="4"/>
<polyline points="1000,657.1 1489.6,657.1" fill="none" stroke="#202831" stroke-width="4"/>
<polyline points="1112.5,356.5 1112.5,508.6" fill="none" stroke="#202831" stroke-width="4"/>
<polyline points="1164.7,280 1164.7,508.6" fill="none" stroke="#202831" stroke-width="4"/>
<polyline points="1249.3,563.5 1249.3,657.1" fill="none" stroke="#202831" stroke-width="4"/>
<polyline points="1249.3,606.7 1489.6,606.7" fill="none" stroke="#202831" stroke-width="4"/>
<polyline points="1249.3,623.8 1489.6,623.8" fill="none" stroke="#202831" stroke-width="4"/>
<polyline points="1292.5,657.1 1292.5,820" fill="none" stroke="#202831" stroke-width="4"/>
<polyline points="1344.7,563.5 1344.7,606.7" fill="none" stroke="#202831" stroke-width="4"/>
<polyline points="1426.6,657.1 1426.6,820" fill="none" stroke="#202831" stroke-width="4"/>
<polyline points="1489.6,280 1489.6,820" fill="none" stroke="#202831" stroke-width="4"/>
<text x="1082.35" y="303.25" font-size="30" font-family="Microsoft YaHei,Noto Sans CJK SC,sans-serif" text-anchor="middle" dominant-baseline="text-before-edge" fill="#202831">?</text>
<text x="1327.15" y="379.3" font-size="30" font-family="Microsoft YaHei,Noto Sans CJK SC,sans-serif" text-anchor="middle" dominant-baseline="text-before-edge" fill="#202831">?</text>
<text x="1649.8" y="535" font-size="30" font-family="Microsoft YaHei,Noto Sans CJK SC,sans-serif" text-anchor="middle" dominant-baseline="text-before-edge" fill="#202831">?</text>
<text x="1458.1" y="723.55" font-size="30" font-family="Microsoft YaHei,Noto Sans CJK SC,sans-serif" text-anchor="middle" dominant-baseline="text-before-edge" fill="#202831">?</text>
<text x="1359.55" y="723.55" font-size="30" font-family="Microsoft YaHei,Noto Sans CJK SC,sans-serif" text-anchor="middle" dominant-baseline="text-before-edge" fill="#202831">?</text>
<text x="1146.25" y="723.55" font-size="30" font-family="Microsoft YaHei,Noto Sans CJK SC,sans-serif" text-anchor="middle" dominant-baseline="text-before-edge" fill="#202831">?</text>
<text x="1124.65" y="595.3" font-size="30" font-family="Microsoft YaHei,Noto Sans CJK SC,sans-serif" text-anchor="middle" dominant-baseline="text-before-edge" fill="#202831">?</text>
<text x="1244.8" y="533.55" font-size="23" font-family="Microsoft YaHei,Noto Sans CJK SC,sans-serif" text-anchor="middle" dominant-baseline="text-before-edge" fill="#202831">?</text>
<text x="1244.8" y="512.1" font-size="11" font-family="Microsoft YaHei,Noto Sans CJK SC,sans-serif" text-anchor="middle" dominant-baseline="text-before-edge" fill="#202831">?</text>
<text x="1056.25" y="417.55" font-size="30" font-family="Microsoft YaHei,Noto Sans CJK SC,sans-serif" text-anchor="middle" dominant-baseline="text-before-edge" fill="#202831">?</text>
<text x="1138.6" y="417.55" font-size="30" font-family="Microsoft YaHei,Noto Sans CJK SC,sans-serif" text-anchor="middle" dominant-baseline="text-before-edge" fill="#202831">?</text>
<text x="1297" y="571.1" font-size="28" font-family="Microsoft YaHei,Noto Sans CJK SC,sans-serif" text-anchor="middle" dominant-baseline="text-before-edge" fill="#202831">?</text>
<text x="1417.15" y="571.1" font-size="28" font-family="Microsoft YaHei,Noto Sans CJK SC,sans-serif" text-anchor="middle" dominant-baseline="text-before-edge" fill="#202831">?</text>
<text x="1369.45" y="629.95" font-size="21" font-family="Microsoft YaHei,Noto Sans CJK SC,sans-serif" text-anchor="middle" dominant-baseline="text-before-edge" fill="#202831">?</text>
<text x="1369.45" y="609.75" font-size="11" font-family="Microsoft YaHei,Noto Sans CJK SC,sans-serif" text-anchor="middle" dominant-baseline="text-before-edge" fill="#202831">?</text>
<polyline points="1249.3,606.7 1489.6,606.7 1489.6,623.8 1249.3,623.8 1249.3,606.7" fill="none" stroke="#00618A" stroke-width="6"/>
<text x="55" y="861" font-size="28" font-family="Microsoft YaHei,Noto Sans CJK SC,sans-serif" text-anchor="start" dominant-baseline="text-before-edge" fill="#00618A">旧合法解保留新规则前 1 次主动决定；第 2 次才出现不可延伸的选择。</text>
<text x="55" y="918" font-size="28" font-family="Microsoft YaHei,Noto Sans CJK SC,sans-serif" text-anchor="start" dominant-baseline="text-before-edge" fill="#202831">该次候选 [1, 3]，程序取 1；旧合法解在同一侧取 3。</text>
<text x="55" y="975" font-size="25" font-family="Microsoft YaHei,Noto Sans CJK SC,sans-serif" text-anchor="start" dominant-baseline="text-before-edge" fill="#505B67">左图只用于独立诊断，没有被输入新规则；未失败换算法、未回溯。</text>
</svg>
